<svg xmlns="http://www.w3.org/2000/svg" width="1099" height="512" viewBox="0 0 1099 512" role="img" aria-labelledby="title description">
  <title id="title">German (no dead keys) — layer 5</title>
  <desc id="description">Static inputwerk keymap preview. Open the linked HTML visualizer to switch layers.</desc>
  <rect width="100%" height="100%" rx="18" fill="#111318"/>
  <text x="24" y="31" fill="#a8ff78" font-size="10" font-family="monospace" letter-spacing="2">INPUTWERK · XKB</text>
  <text x="24" y="60" fill="#f5f7fb" font-size="23" font-family="system-ui,sans-serif" font-weight="700">German (no dead keys)</text>
  <text x="24" y="79" fill="#929aab" font-size="12" font-family="system-ui,sans-serif">Layer 5 · Caps</text>
  <g><rect x="24" y="92" width="64" height="56" rx="7" fill="#252a34" stroke="#424957"/><text x="56" y="123" text-anchor="middle" fill="#596170" font-size="14" font-weight="650">·</text><text x="29" y="142" fill="#929aab" font-size="7" font-family="monospace">ESC</text></g><g><rect x="95" y="92" width="64" height="56" rx="7" fill="#252a34" stroke="#424957"/><text x="127" y="105" text-anchor="middle" fill="#f5f7fb" font-size="10" font-weight="650"><tspan x="127" dy="0">Switch</tspan><tspan x="127" dy="12">VT</tspan><tspan x="127" dy="12">1</tspan></text><text x="100" y="142" fill="#929aab" font-size="7" font-family="monospace">FK01</text></g><g><rect x="166" y="92" width="64" height="56" rx="7" fill="#252a34" stroke="#424957"/><text x="198" y="105" text-anchor="middle" fill="#f5f7fb" font-size="10" font-weight="650"><tspan x="198" dy="0">Switch</tspan><tspan x="198" dy="12">VT</tspan><tspan x="198" dy="12">2</tspan></text><text x="171" y="142" fill="#929aab" font-size="7" font-family="monospace">FK02</text></g><g><rect x="237" y="92" width="64" height="56" rx="7" fill="#252a34" stroke="#424957"/><text x="269" y="105" text-anchor="middle" fill="#f5f7fb" font-size="10" font-weight="650"><tspan x="269" dy="0">Switch</tspan><tspan x="269" dy="12">VT</tspan><tspan x="269" dy="12">3</tspan></text><text x="242" y="142" fill="#929aab" font-size="7" font-family="monospace">FK03</text></g><g><rect x="308" y="92" width="64" height="56" rx="7" fill="#252a34" stroke="#424957"/><text x="340" y="105" text-anchor="middle" fill="#f5f7fb" font-size="10" font-weight="650"><tspan x="340" dy="0">Switch</tspan><tspan x="340" dy="12">VT</tspan><tspan x="340" dy="12">4</tspan></text><text x="313" y="142" fill="#929aab" font-size="7" font-family="monospace">FK04</text></g><g><rect x="379" y="92" width="64" height="56" rx="7" fill="#252a34" stroke="#424957"/><text x="411" y="105" text-anchor="middle" fill="#f5f7fb" font-size="10" font-weight="650"><tspan x="411" dy="0">Switch</tspan><tspan x="411" dy="12">VT</tspan><tspan x="411" dy="12">5</tspan></text><text x="384" y="142" fill="#929aab" font-size="7" font-family="monospace">FK05</text></g><g><rect x="450" y="92" width="64" height="56" rx="7" fill="#252a34" stroke="#424957"/><text x="482" y="105" text-anchor="middle" fill="#f5f7fb" font-size="10" font-weight="650"><tspan x="482" dy="0">Switch</tspan><tspan x="482" dy="12">VT</tspan><tspan x="482" dy="12">6</tspan></text><text x="455" y="142" fill="#929aab" font-size="7" font-family="monospace">FK06</text></g><g><rect x="521" y="92" width="64" height="56" rx="7" fill="#252a34" stroke="#424957"/><text x="553" y="105" text-anchor="middle" fill="#f5f7fb" font-size="10" font-weight="650"><tspan x="553" dy="0">Switch</tspan><tspan x="553" dy="12">VT</tspan><tspan x="553" dy="12">7</tspan></text><text x="526" y="142" fill="#929aab" font-size="7" font-family="monospace">FK07</text></g><g><rect x="592" y="92" width="64" height="56" rx="7" fill="#252a34" stroke="#424957"/><text x="624" y="105" text-anchor="middle" fill="#f5f7fb" font-size="10" font-weight="650"><tspan x="624" dy="0">Switch</tspan><tspan x="624" dy="12">VT</tspan><tspan x="624" dy="12">8</tspan></text><text x="597" y="142" fill="#929aab" font-size="7" font-family="monospace">FK08</text></g><g><rect x="663" y="92" width="64" height="56" rx="7" fill="#252a34" stroke="#424957"/><text x="695" y="105" text-anchor="middle" fill="#f5f7fb" font-size="10" font-weight="650"><tspan x="695" dy="0">Switch</tspan><tspan x="695" dy="12">VT</tspan><tspan x="695" dy="12">9</tspan></text><text x="668" y="142" fill="#929aab" font-size="7" font-family="monospace">FK09</text></g><g><rect x="734" y="92" width="64" height="56" rx="7" fill="#252a34" stroke="#424957"/><text x="766" y="105" text-anchor="middle" fill="#f5f7fb" font-size="10" font-weight="650"><tspan x="766" dy="0">Switch</tspan><tspan x="766" dy="12">VT</tspan><tspan x="766" dy="12">10</tspan></text><text x="739" y="142" fill="#929aab" font-size="7" font-family="monospace">FK10</text></g><g><rect x="805" y="92" width="64" height="56" rx="7" fill="#252a34" stroke="#424957"/><text x="837" y="105" text-anchor="middle" fill="#f5f7fb" font-size="10" font-weight="650"><tspan x="837" dy="0">Switch</tspan><tspan x="837" dy="12">VT</tspan><tspan x="837" dy="12">11</tspan></text><text x="810" y="142" fill="#929aab" font-size="7" font-family="monospace">FK11</text></g><g><rect x="876" y="92" width="64" height="56" rx="7" fill="#252a34" stroke="#424957"/><text x="908" y="105" text-anchor="middle" fill="#f5f7fb" font-size="10" font-weight="650"><tspan x="908" dy="0">Switch</tspan><tspan x="908" dy="12">VT</tspan><tspan x="908" dy="12">12</tspan></text><text x="881" y="142" fill="#929aab" font-size="7" font-family="monospace">FK12</text></g><g><rect x="24" y="158" width="64" height="56" rx="7" fill="#252a34" stroke="#424957"/><text x="56" y="189" text-anchor="middle" fill="#596170" font-size="14" font-weight="650">·</text><text x="29" y="208" fill="#929aab" font-size="7" font-family="monospace">TLDE</text></g><g><rect x="95" y="158" width="64" height="56" rx="7" fill="#252a34" stroke="#424957"/><text x="127" y="189" text-anchor="middle" fill="#f5f7fb" font-size="14" font-weight="650">3</text><text x="100" y="208" fill="#929aab" font-size="7" font-family="monospace">AE01</text></g><g><rect x="166" y="158" width="64" height="56" rx="7" fill="#252a34" stroke="#424957"/><text x="198" y="189" text-anchor="middle" fill="#f5f7fb" font-size="14" font-weight="650">@</text><text x="171" y="208" fill="#929aab" font-size="7" font-family="monospace">AE02</text></g><g><rect x="237" y="158" width="64" height="56" rx="7" fill="#252a34" stroke="#424957"/><text x="269" y="189" text-anchor="middle" fill="#f5f7fb" font-size="14" font-weight="650">£</text><text x="242" y="208" fill="#929aab" font-size="7" font-family="monospace">AE03</text></g><g><rect x="308" y="158" width="64" height="56" rx="7" fill="#252a34" stroke="#424957"/><text x="340" y="189" text-anchor="middle" fill="#f5f7fb" font-size="14" font-weight="650">¼</text><text x="313" y="208" fill="#929aab" font-size="7" font-family="monospace">AE04</text></g><g><rect x="379" y="158" width="64" height="56" rx="7" fill="#252a34" stroke="#424957"/><text x="411" y="189" text-anchor="middle" fill="#f5f7fb" font-size="14" font-weight="650">½</text><text x="384" y="208" fill="#929aab" font-size="7" font-family="monospace">AE05</text></g><g><rect x="450" y="158" width="64" height="56" rx="7" fill="#252a34" stroke="#424957"/><text x="482" y="189" text-anchor="middle" fill="#596170" font-size="14" font-weight="650">·</text><text x="455" y="208" fill="#929aab" font-size="7" font-family="monospace">AE06</text></g><g><rect x="521" y="158" width="64" height="56" rx="7" fill="#252a34" stroke="#424957"/><text x="553" y="189" text-anchor="middle" fill="#f5f7fb" font-size="14" font-weight="650">{</text><text x="526" y="208" fill="#929aab" font-size="7" font-family="monospace">AE07</text></g><g><rect x="592" y="158" width="64" height="56" rx="7" fill="#252a34" stroke="#424957"/><text x="624" y="189" text-anchor="middle" fill="#f5f7fb" font-size="14" font-weight="650">[</text><text x="597" y="208" fill="#929aab" font-size="7" font-family="monospace">AE08</text></g><g><rect x="663" y="158" width="64" height="56" rx="7" fill="#252a34" stroke="#424957"/><text x="695" y="189" text-anchor="middle" fill="#f5f7fb" font-size="14" font-weight="650">]</text><text x="668" y="208" fill="#929aab" font-size="7" font-family="monospace">AE09</text></g><g><rect x="734" y="158" width="64" height="56" rx="7" fill="#252a34" stroke="#424957"/><text x="766" y="189" text-anchor="middle" fill="#f5f7fb" font-size="14" font-weight="650">}</text><text x="739" y="208" fill="#929aab" font-size="7" font-family="monospace">AE10</text></g><g><rect x="805" y="158" width="64" height="56" rx="7" fill="#252a34" stroke="#424957"/><text x="837" y="189" text-anchor="middle" fill="#f5f7fb" font-size="14" font-weight="650">/</text><text x="810" y="208" fill="#929aab" font-size="7" font-family="monospace">AE11</text></g><g><rect x="876" y="158" width="64" height="56" rx="7" fill="#252a34" stroke="#424957"/><text x="908" y="189" text-anchor="middle" fill="#596170" font-size="14" font-weight="650">·</text><text x="881" y="208" fill="#929aab" font-size="7" font-family="monospace">AE12</text></g><g><rect x="947" y="158" width="128" height="56" rx="7" fill="#252a34" stroke="#424957"/><text x="1011" y="189" text-anchor="middle" fill="#596170" font-size="14" font-weight="650">·</text><text x="952" y="208" fill="#929aab" font-size="7" font-family="monospace">BKSP</text></g><g><rect x="24" y="224" width="96" height="56" rx="7" fill="#252a34" stroke="#424957"/><text x="72" y="255" text-anchor="middle" fill="#596170" font-size="14" font-weight="650">·</text><text x="29" y="274" fill="#929aab" font-size="7" font-family="monospace">TAB</text></g><g><rect x="127" y="224" width="64" height="56" rx="7" fill="#252a34" stroke="#424957"/><text x="159" y="255" text-anchor="middle" fill="#f5f7fb" font-size="14" font-weight="650">@</text><text x="132" y="274" fill="#929aab" font-size="7" font-family="monospace">AD01</text></g><g><rect x="198" y="224" width="64" height="56" rx="7" fill="#252a34" stroke="#424957"/><text x="230" y="255" text-anchor="middle" fill="#596170" font-size="14" font-weight="650">·</text><text x="203" y="274" fill="#929aab" font-size="7" font-family="monospace">AD02</text></g><g><rect x="269" y="224" width="64" height="56" rx="7" fill="#252a34" stroke="#424957"/><text x="301" y="255" text-anchor="middle" fill="#f5f7fb" font-size="14" font-weight="650">€</text><text x="274" y="274" fill="#929aab" font-size="7" font-family="monospace">AD03</text></g><g><rect x="340" y="224" width="64" height="56" rx="7" fill="#252a34" stroke="#424957"/><text x="372" y="255" text-anchor="middle" fill="#596170" font-size="14" font-weight="650">·</text><text x="345" y="274" fill="#929aab" font-size="7" font-family="monospace">AD04</text></g><g><rect x="411" y="224" width="64" height="56" rx="7" fill="#252a34" stroke="#424957"/><text x="443" y="255" text-anchor="middle" fill="#f5f7fb" font-size="14" font-weight="650">tslash</text><text x="416" y="274" fill="#929aab" font-size="7" font-family="monospace">AD05</text></g><g><rect x="482" y="224" width="64" height="56" rx="7" fill="#252a34" stroke="#424957"/><text x="514" y="255" text-anchor="middle" fill="#f5f7fb" font-size="14" font-weight="650">¥</text><text x="487" y="274" fill="#929aab" font-size="7" font-family="monospace">AD06</text></g><g><rect x="553" y="224" width="64" height="56" rx="7" fill="#252a34" stroke="#424957"/><text x="585" y="255" text-anchor="middle" fill="#f5f7fb" font-size="14" font-weight="650">ü</text><text x="558" y="274" fill="#929aab" font-size="7" font-family="monospace">AD07</text></g><g><rect x="624" y="224" width="64" height="56" rx="7" fill="#252a34" stroke="#424957"/><text x="656" y="255" text-anchor="middle" fill="#596170" font-size="14" font-weight="650">·</text><text x="629" y="274" fill="#929aab" font-size="7" font-family="monospace">AD08</text></g><g><rect x="695" y="224" width="64" height="56" rx="7" fill="#252a34" stroke="#424957"/><text x="727" y="255" text-anchor="middle" fill="#f5f7fb" font-size="14" font-weight="650">ö</text><text x="700" y="274" fill="#929aab" font-size="7" font-family="monospace">AD09</text></g><g><rect x="766" y="224" width="64" height="56" rx="7" fill="#252a34" stroke="#424957"/><text x="798" y="255" text-anchor="middle" fill="#596170" font-size="14" font-weight="650">·</text><text x="771" y="274" fill="#929aab" font-size="7" font-family="monospace">AD10</text></g><g><rect x="837" y="224" width="64" height="56" rx="7" fill="#252a34" stroke="#424957"/><text x="869" y="255" text-anchor="middle" fill="#f5f7fb" font-size="14" font-weight="650">~</text><text x="842" y="274" fill="#929aab" font-size="7" font-family="monospace">AD11</text></g><g><rect x="908" y="224" width="64" height="56" rx="7" fill="#252a34" stroke="#424957"/><text x="940" y="255" text-anchor="middle" fill="#f5f7fb" font-size="14" font-weight="650">~</text><text x="913" y="274" fill="#929aab" font-size="7" font-family="monospace">AD12</text></g><g><rect x="979" y="224" width="96" height="56" rx="7" fill="#252a34" stroke="#424957"/><text x="1027" y="255" text-anchor="middle" fill="#f5f7fb" font-size="14" font-weight="650">|</text><text x="984" y="274" fill="#929aab" font-size="7" font-family="monospace">BKSL</text></g><g><rect x="24" y="290" width="115.2" height="56" rx="7" fill="#252a34" stroke="#424957"/><text x="81.6" y="321" text-anchor="middle" fill="#596170" font-size="14" font-weight="650">·</text><text x="29" y="340" fill="#929aab" font-size="7" font-family="monospace">CAPS</text></g><g><rect x="146.2" y="290" width="64" height="56" rx="7" fill="#252a34" stroke="#424957"/><text x="178.2" y="321" text-anchor="middle" fill="#f5f7fb" font-size="14" font-weight="650">ä</text><text x="151.2" y="340" fill="#929aab" font-size="7" font-family="monospace">AC01</text></g><g><rect x="217.2" y="290" width="64" height="56" rx="7" fill="#252a34" stroke="#424957"/><text x="249.2" y="321" text-anchor="middle" fill="#f5f7fb" font-size="14" font-weight="650">ß</text><text x="222.2" y="340" fill="#929aab" font-size="7" font-family="monospace">AC02</text></g><g><rect x="288.2" y="290" width="64" height="56" rx="7" fill="#252a34" stroke="#424957"/><text x="320.2" y="321" text-anchor="middle" fill="#596170" font-size="14" font-weight="650">·</text><text x="293.2" y="340" fill="#929aab" font-size="7" font-family="monospace">AC03</text></g><g><rect x="359.2" y="290" width="64" height="56" rx="7" fill="#252a34" stroke="#424957"/><text x="391.2" y="321" text-anchor="middle" fill="#596170" font-size="14" font-weight="650">·</text><text x="364.2" y="340" fill="#929aab" font-size="7" font-family="monospace">AC04</text></g><g><rect x="430.2" y="290" width="64" height="56" rx="7" fill="#252a34" stroke="#424957"/><text x="462.2" y="321" text-anchor="middle" fill="#596170" font-size="14" font-weight="650">·</text><text x="435.2" y="340" fill="#929aab" font-size="7" font-family="monospace">AC05</text></g><g><rect x="501.2" y="290" width="64" height="56" rx="7" fill="#252a34" stroke="#424957"/><text x="533.2" y="321" text-anchor="middle" fill="#596170" font-size="14" font-weight="650">·</text><text x="506.2" y="340" fill="#929aab" font-size="7" font-family="monospace">AC06</text></g><g><rect x="572.2" y="290" width="64" height="56" rx="7" fill="#252a34" stroke="#424957"/><text x="604.2" y="321" text-anchor="middle" fill="#596170" font-size="14" font-weight="650">·</text><text x="577.2" y="340" fill="#929aab" font-size="7" font-family="monospace">AC07</text></g><g><rect x="643.2" y="290" width="64" height="56" rx="7" fill="#252a34" stroke="#424957"/><text x="675.2" y="321" text-anchor="middle" fill="#596170" font-size="14" font-weight="650">·</text><text x="648.2" y="340" fill="#929aab" font-size="7" font-family="monospace">AC08</text></g><g><rect x="714.2" y="290" width="64" height="56" rx="7" fill="#252a34" stroke="#424957"/><text x="746.2" y="321" text-anchor="middle" fill="#596170" font-size="14" font-weight="650">·</text><text x="719.2" y="340" fill="#929aab" font-size="7" font-family="monospace">AC09</text></g><g><rect x="785.2" y="290" width="64" height="56" rx="7" fill="#252a34" stroke="#424957"/><text x="817.2" y="321" text-anchor="middle" fill="#596170" font-size="14" font-weight="650">·</text><text x="790.2" y="340" fill="#929aab" font-size="7" font-family="monospace">AC10</text></g><g><rect x="856.2" y="290" width="64" height="56" rx="7" fill="#252a34" stroke="#424957"/><text x="888.2" y="321" text-anchor="middle" fill="#596170" font-size="14" font-weight="650">·</text><text x="861.2" y="340" fill="#929aab" font-size="7" font-family="monospace">AC11</text></g><g><rect x="927.2" y="290" width="140.8" height="56" rx="7" fill="#252a34" stroke="#424957"/><text x="997.6" y="321" text-anchor="middle" fill="#596170" font-size="14" font-weight="650">·</text><text x="932.2" y="340" fill="#929aab" font-size="7" font-family="monospace">RTRN</text></g><g><rect x="24" y="356" width="89.6" height="56" rx="7" fill="#252a34" stroke="#424957"/><text x="68.8" y="387" text-anchor="middle" fill="#596170" font-size="14" font-weight="650">·</text><text x="29" y="406" fill="#929aab" font-size="7" font-family="monospace">LFSH</text></g><g><rect x="120.6" y="356" width="64" height="56" rx="7" fill="#252a34" stroke="#424957"/><text x="152.6" y="387" text-anchor="middle" fill="#596170" font-size="14" font-weight="650">·</text><text x="125.6" y="406" fill="#929aab" font-size="7" font-family="monospace">LSGT</text></g><g><rect x="191.6" y="356" width="64" height="56" rx="7" fill="#252a34" stroke="#424957"/><text x="223.6" y="387" text-anchor="middle" fill="#f5f7fb" font-size="14" font-weight="650">¥</text><text x="196.6" y="406" fill="#929aab" font-size="7" font-family="monospace">AB01</text></g><g><rect x="262.6" y="356" width="64" height="56" rx="7" fill="#252a34" stroke="#424957"/><text x="294.6" y="387" text-anchor="middle" fill="#596170" font-size="14" font-weight="650">·</text><text x="267.6" y="406" fill="#929aab" font-size="7" font-family="monospace">AB02</text></g><g><rect x="333.6" y="356" width="64" height="56" rx="7" fill="#252a34" stroke="#424957"/><text x="365.6" y="387" text-anchor="middle" fill="#596170" font-size="14" font-weight="650">·</text><text x="338.6" y="406" fill="#929aab" font-size="7" font-family="monospace">AB03</text></g><g><rect x="404.6" y="356" width="64" height="56" rx="7" fill="#252a34" stroke="#424957"/><text x="436.6" y="387" text-anchor="middle" fill="#596170" font-size="14" font-weight="650">·</text><text x="409.6" y="406" fill="#929aab" font-size="7" font-family="monospace">AB04</text></g><g><rect x="475.6" y="356" width="64" height="56" rx="7" fill="#252a34" stroke="#424957"/><text x="507.6" y="387" text-anchor="middle" fill="#596170" font-size="14" font-weight="650">·</text><text x="480.6" y="406" fill="#929aab" font-size="7" font-family="monospace">AB05</text></g><g><rect x="546.6" y="356" width="64" height="56" rx="7" fill="#252a34" stroke="#424957"/><text x="578.6" y="387" text-anchor="middle" fill="#596170" font-size="14" font-weight="650">·</text><text x="551.6" y="406" fill="#929aab" font-size="7" font-family="monospace">AB06</text></g><g><rect x="617.6" y="356" width="64" height="56" rx="7" fill="#252a34" stroke="#424957"/><text x="649.6" y="387" text-anchor="middle" fill="#596170" font-size="14" font-weight="650">·</text><text x="622.6" y="406" fill="#929aab" font-size="7" font-family="monospace">AB07</text></g><g><rect x="688.6" y="356" width="64" height="56" rx="7" fill="#252a34" stroke="#424957"/><text x="720.6" y="387" text-anchor="middle" fill="#f5f7fb" font-size="14" font-weight="650">&lt;</text><text x="693.6" y="406" fill="#929aab" font-size="7" font-family="monospace">AB08</text></g><g><rect x="759.6" y="356" width="64" height="56" rx="7" fill="#252a34" stroke="#424957"/><text x="791.6" y="387" text-anchor="middle" fill="#f5f7fb" font-size="14" font-weight="650">&gt;</text><text x="764.6" y="406" fill="#929aab" font-size="7" font-family="monospace">AB09</text></g><g><rect x="830.6" y="356" width="64" height="56" rx="7" fill="#252a34" stroke="#424957"/><text x="862.6" y="387" text-anchor="middle" fill="#f5f7fb" font-size="14" font-weight="650">_</text><text x="835.6" y="406" fill="#929aab" font-size="7" font-family="monospace">AB10</text></g><g><rect x="901.6" y="356" width="166.4" height="56" rx="7" fill="#252a34" stroke="#424957"/><text x="984.8000000000001" y="387" text-anchor="middle" fill="#596170" font-size="14" font-weight="650">·</text><text x="906.6" y="406" fill="#929aab" font-size="7" font-family="monospace">RTSH</text></g><g><rect x="24" y="422" width="89.6" height="56" rx="7" fill="#252a34" stroke="#424957"/><text x="68.8" y="453" text-anchor="middle" fill="#596170" font-size="14" font-weight="650">·</text><text x="29" y="472" fill="#929aab" font-size="7" font-family="monospace">LCTL</text></g><g><rect x="120.6" y="422" width="76.8" height="56" rx="7" fill="#252a34" stroke="#424957"/><text x="159" y="453" text-anchor="middle" fill="#596170" font-size="14" font-weight="650">·</text><text x="125.6" y="472" fill="#929aab" font-size="7" font-family="monospace">LWIN</text></g><g><rect x="204.39999999999998" y="422" width="76.8" height="56" rx="7" fill="#252a34" stroke="#424957"/><text x="242.79999999999998" y="453" text-anchor="middle" fill="#596170" font-size="14" font-weight="650">·</text><text x="209.39999999999998" y="472" fill="#929aab" font-size="7" font-family="monospace">LALT</text></g><g><rect x="288.2" y="422" width="396.8" height="56" rx="7" fill="#252a34" stroke="#424957"/><text x="486.6" y="453" text-anchor="middle" fill="#596170" font-size="14" font-weight="650">·</text><text x="293.2" y="472" fill="#929aab" font-size="7" font-family="monospace">SPCE</text></g><g><rect x="692" y="422" width="76.8" height="56" rx="7" fill="#252a34" stroke="#424957"/><text x="730.4" y="453" text-anchor="middle" fill="#596170" font-size="14" font-weight="650">·</text><text x="697" y="472" fill="#929aab" font-size="7" font-family="monospace">RALT</text></g><g><rect x="775.8" y="422" width="76.8" height="56" rx="7" fill="#252a34" stroke="#424957"/><text x="814.1999999999999" y="453" text-anchor="middle" fill="#596170" font-size="14" font-weight="650">·</text><text x="780.8" y="472" fill="#929aab" font-size="7" font-family="monospace">RWIN</text></g><g><rect x="859.5999999999999" y="422" width="76.8" height="56" rx="7" fill="#252a34" stroke="#424957"/><text x="897.9999999999999" y="453" text-anchor="middle" fill="#596170" font-size="14" font-weight="650">·</text><text x="864.5999999999999" y="472" fill="#929aab" font-size="7" font-family="monospace">COMP</text></g><g><rect x="943.3999999999999" y="422" width="89.6" height="56" rx="7" fill="#252a34" stroke="#424957"/><text x="988.1999999999998" y="453" text-anchor="middle" fill="#596170" font-size="14" font-weight="650">·</text><text x="948.3999999999999" y="472" fill="#929aab" font-size="7" font-family="monospace">RCTL</text></g>
</svg>
